<svg xmlns="http://www.w3.org/2000/svg" version="1.1" xmlns:xlink="http://www.w3.org/1999/xlink" xmlns:svgjs="http://svgjs.com/svgjs" width="1440" height="560" preserveAspectRatio="none" viewBox="0 0 1440 560"><g mask="url(&quot;#SvgjsMask1024&quot;)" fill="none"><rect width="1440" height="560" x="0" y="0" fill="rgba(230, 94, 1, 0.45)"></rect><path d="M0,712.988C130.84,742.994,273.253,668.677,369.787,575.399C460.461,487.783,456.779,346.883,501.059,228.826C541.562,120.838,636.091,25.062,618.98,-88.996C601.883,-202.957,484.367,-267.392,413.037,-357.898C337.401,-453.867,305.191,-605.827,187.053,-637.043C68.546,-668.356,-30.192,-537.749,-148.668,-506.318C-271.868,-473.633,-419.241,-529.051,-519.011,-449.726C-621.027,-368.616,-656.901,-225.708,-665.196,-95.641C-673.153,29.119,-638.886,157.433,-564.124,257.627C-495.85,349.127,-363.622,355.869,-274.787,427.577C-169.9,512.242,-131.383,682.857,0,712.988" fill="rgba(216, 88, 1, 0.45)"></path><path d="M1440 997.877C1527.946 1012.7429999999999 1617.936 999.475 1700.046 964.639 1792.814 925.281 1888.301 875.191 1937.056 786.998 1987.078 696.513 1989.187 585.086 1965.509 484.443 1942.9180000000001 388.419 1874.145 314.326 1808.5230000000001 240.673 1743.752 167.97500000000002 1680.644 86.024 1586.945 59.55000000000001 1493.579 33.16999999999996 1395.828 65.73200000000003 1304.415 98.24000000000001 1217.119 129.284 1128.536 167.863 1073.2649999999999 242.223 1019.698 314.28999999999996 1028.921 410.623 1007.422 497.805 983.039 596.681 887.535 700.848 938.412 789.067 990.7529999999999 879.825 1134.194 845.075 1230.917 885.3399999999999 1305.498 916.3879999999999 1360.345 984.412 1440 997.877" fill="rgba(244, 100, 1, 0.45)"></path></g><defs><mask id="SvgjsMask1024"><rect width="1440" height="560" fill="#ffffff"></rect></mask></defs></svg>