<svg xmlns="http://www.w3.org/2000/svg" version="1.1" xmlns:xlink="http://www.w3.org/1999/xlink" xmlns:svgjs="http://svgjs.com/svgjs" width="1440" height="560" preserveAspectRatio="none" viewBox="0 0 1440 560"><g mask="url(&quot;#SvgjsMask1067&quot;)" fill="none"><rect width="1440" height="560" x="0" y="0" fill="rgba(230, 94, 1, 0.45)"></rect><path d="M0,474.742C90.554,474.105,177.584,443.822,254.026,395.273C330.755,346.542,414.02,287.062,434.83,198.58C455.193,112.002,394.577,29.938,359.136,-51.636C332.236,-113.551,287.887,-161.492,253.222,-219.418C209.361,-292.709,209.712,-411.137,128.381,-437.226C47.653,-463.122,-15.424,-353.314,-97.457,-331.907C-183.551,-309.441,-293.41,-371.389,-358.085,-310.283C-421.447,-250.418,-386.343,-143.113,-389.48,-55.999C-392.271,21.484,-397.216,97.045,-375.435,171.456C-350.899,255.278,-324.274,343.98,-256.334,398.864C-185.583,456.018,-90.95,475.382,0,474.742" fill="rgba(189, 77, 1, 0.45)"></path><path d="M1440 1189.777C1558.566 1194.856 1671.504 1139.357 1767.401 1069.446 1859.71 1002.1510000000001 1935.441 911.077 1971.144 802.565 2004.903 699.961 1992.536 588.164 1959.603 485.29200000000003 1930.019 392.881 1857.397 326.698 1795.01 252.382 1731.528 176.762 1682.3890000000001 83.207 1590.897 46.09100000000001 1495.86 7.537000000000035 1390.054 27.335000000000036 1289.455 47.291000000000054 1180.538 68.89699999999999 1061.6399999999999 85.35000000000002 985.508 166.18099999999998 908.479 247.964 889.844 367.706 882.101 479.786 874.756 586.113 899.599 689.634 942.611 787.15 986.071 885.682 1046.44 974.389 1130.144 1042.146 1220.909 1115.618 1323.3319999999999 1184.779 1440 1189.777" fill="rgba(254, 114, 19, 0.45)"></path></g><defs><mask id="SvgjsMask1067"><rect width="1440" height="560" fill="#ffffff"></rect></mask></defs></svg>